<svg xmlns="http://www.w3.org/2000/svg" viewBox="0 0 10.95 6.67"><g id="图层_2" data-name="图层 2"><path d="M.54,1.54a2.74,2.74,0,0,0,.09.66A3.38,3.38,0,0,1,.72,3c0,.41,0,.82,0,1.23A6.54,6.54,0,0,0,.92,5.45a.49.49,0,0,1,.18.3,1.71,1.71,0,0,1,0,.31,1,1,0,0,1-.08.3C1,6.5,1,6.6.92,6.67a4.93,4.93,0,0,1-.66-1.5A8.64,8.64,0,0,1,0,3.49,11,11,0,0,1,.06,1.77C.12,1.2.21.66.31.15a.32.32,0,0,1,.1.18c0,.08,0,.16,0,.25A1.06,1.06,0,0,1,.5.76,2,2,0,0,1,.52,1v.27A2.18,2.18,0,0,1,.54,1.54Zm3.9-.11a.35.35,0,0,1-.08.13.57.57,0,0,1-.13.08l-.13,0H4a.45.45,0,0,0-.31.13c-.1.08-.2.18-.31.28L1.92,3.79q.29.13.72.3c.29.11.59.25.9.4A9.12,9.12,0,0,1,4.45,5a3.76,3.76,0,0,1,.76.65,1.86,1.86,0,0,1,.29.24A.33.33,0,0,1,5.57,6a.43.43,0,0,1,0,.11.22.22,0,0,0,.06.12.21.21,0,0,1,0,.16.11.11,0,0,0,0,.1s0,0-.05,0a.33.33,0,0,1-.11-.08,4.36,4.36,0,0,0-.84-.66,7.38,7.38,0,0,0-1-.5,10.53,10.53,0,0,0-1.08-.4L1.35,4.54A.41.41,0,0,1,1,4.31a.28.28,0,0,1,0-.22l.08-.2a1.12,1.12,0,0,0,.11-.34.89.89,0,0,1,.13-.35A7.09,7.09,0,0,0,2,2.52a7.62,7.62,0,0,1,.66-.72,3,3,0,0,1,.73-.52,1.52,1.52,0,0,1,.85-.12.33.33,0,0,1,.25.11C4.49,1.34,4.49,1.39,4.44,1.43Z" style="fill:#231815"/><path d="M10.29.73a.11.11,0,0,0,0,.08,0,0,0,0,1,0,0,.17.17,0,0,1-.12,0L10,.9a.5.5,0,0,1-.17,0A.45.45,0,0,1,9.67.85L9.32.71A1.63,1.63,0,0,0,8.87.65a3.85,3.85,0,0,0-.66.06A4.37,4.37,0,0,0,7.54.9,2.26,2.26,0,0,0,7,1.18a1,1,0,0,0-.36.37.72.72,0,0,0-.06.33,1,1,0,0,0,.09.33,1,1,0,0,0,.17.28.72.72,0,0,0,.2.17,1.83,1.83,0,0,0,.66.21c.25,0,.5,0,.76.06l.77,0a3.62,3.62,0,0,1,.71.12,2.85,2.85,0,0,0,.32.1,1.08,1.08,0,0,1,.27.1,1,1,0,0,1,.22.18,1,1,0,0,1,.18.33,1.58,1.58,0,0,1-.05.89,2.05,2.05,0,0,1-.52.79A2.94,2.94,0,0,1,9.53,6a2.49,2.49,0,0,1-.74.21,2,2,0,0,1-.73,0,1.5,1.5,0,0,1-.65-.27,1.43,1.43,0,0,1-.48-.57,1.29,1.29,0,0,1-.1-.55.08.08,0,0,1,0-.07s.06-.08.15-.08.08,0,.13,0l.11.06a.29.29,0,0,1,.19.13l.17.19a1.24,1.24,0,0,0,.68.37,1.79,1.79,0,0,0,.73,0,2.32,2.32,0,0,0,.66-.21A1.81,1.81,0,0,0,10.09,5l.19-.18a2.15,2.15,0,0,0,.19-.22,2,2,0,0,0,.17-.27A.8.8,0,0,0,10.7,4a.32.32,0,0,0-.19-.22,1.27,1.27,0,0,0-.39-.13,4.85,4.85,0,0,0-.83-.08H7.7A3.06,3.06,0,0,1,7,3.5a.86.86,0,0,1-.21-.07l-.2-.12a.4.4,0,0,1-.14-.15L6.3,3l-.12-.22a1,1,0,0,1-.07-.25,2.61,2.61,0,0,1,0-.79A1.9,1.9,0,0,1,6.42.94a1.66,1.66,0,0,1,.52-.5A2.92,2.92,0,0,1,7.68.11,3.2,3.2,0,0,1,8.57,0a3.3,3.3,0,0,1,1,.15l.14.06.14.07a1.38,1.38,0,0,1,.31.2A.71.71,0,0,1,10.29.73Z" style="fill:#231815"/></g></svg>